PathFileType	3	(X/Y/Z)	C:\Users\dbak576\Desktop\AnkleMomentFeedback\AB28\AB28_05Apr - Copy\AB28_05Apr_static_01.trc
DataRate	CameraRate	NumFrames	NumMarkers	Units	OrigDataRate	OrigDataStartFrame	OrigNumFrames
200.0	200.0	5	42	mm	200.0	53	141	
Frame#	Time	LASI			RASI			LPSI			RPSI			LTH1			LTH2			LTH3			LTH4			LMFC			LLFC			LTB1			LTB2			LTB3			LTB4			LMMAL			LLMAL			LCAL			LToe			LMT1			LMT5			RTH1			RTH2			RTH3			RTH4			RMFC			RLFC			RTB1			RTB2			RTB3			RTB4			RMMAL			RLMAL			RCAL			RToe			RMT1			RMT5			C7			T10			LACR1			RACR1			CLAV			RBack			
		X1	Y1	Z1	X2	Y2	Z2	X3	Y3	Z3	X4	Y4	Z4	X5	Y5	Z5	X6	Y6	Z6	X7	Y7	Z7	X8	Y8	Z8	X9	Y9	Z9	X10	Y10	Z10	X11	Y11	Z11	X12	Y12	Z12	X13	Y13	Z13	X14	Y14	Z14	X15	Y15	Z15	X16	Y16	Z16	X17	Y17	Z17	X18	Y18	Z18	X19	Y19	Z19	X20	Y20	Z20	X21	Y21	Z21	X22	Y22	Z22	X23	Y23	Z23	X24	Y24	Z24	X25	Y25	Z25	X26	Y26	Z26	X27	Y27	Z27	X28	Y28	Z28	X29	Y29	Z29	X30	Y30	Z30	X31	Y31	Z31	X32	Y32	Z32	X33	Y33	Z33	X34	Y34	Z34	X35	Y35	Z35	X36	Y36	Z36	X37	Y37	Z37	X38	Y38	Z38	X39	Y39	Z39	X40	Y40	Z40	X41	Y41	Z41	X42	Y42	Z42	
53	0.255	342.35782	991.80811	-820.80371	590.02985	1006.1688	-827.5144	425.23837	1033.8999	-647.1839	516.83344	1035.4866	-646.18848	282.85483	799.54401	-792.06696	328.12503	798.1496	-838.38025	303.62405	757.12122	-819.2713	292.77271	708.05231	-801.30145	406.29224	495.92703	-725.55914	290.49823	523.64282	-716.36902	265.42972	398.32526	-663.01379	265.31616	359.11145	-693.63617	276.47964	309.28534	-712.63751	273.3465	400.81647	-724.57507	376.88861	108.59415	-717.81073	292.32947	91.232712	-684.79858	348.36383	47.365124	-620.64716	329.07803	51.643028	-896.36371	362.86145	38.047546	-835.74438	251.80063	38.447552	-801.74188	663.85809	849.54956	-789.28436	677.5882	806.88104	-757.4953	676.70996	775.45233	-722.08496	675.57629	759.37805	-780.38989	545.49561	505.26535	-724.21613	665.35785	518.59998	-709.93933	664.82135	260.94305	-722.70142	675.57971	262.96341	-656.26556	675.52594	224.06508	-687.16687	666.28308	172.93773	-708.02344	586.31421	108.68993	-710.29626	667.78064	97.370255	-671.96179	602.01404	50.590359	-616.33136	663.30255	54.188339	-887.70239	619.35815	42.425442	-828.67218	720.98572	44.949886	-779.12567	458.31445	1506.818	-686.29901	467.74454	1237.714	-616.26685	289.1795	1483.707	-731.78601	634.75415	1461.692	-745.94519	462.23938	1428.3369	-825.64435	581.34967	1380.4103	-620.15399
54	0.26	342.38348	991.85052	-820.80603	590.03699	1006.1569	-827.52521	425.20886	1033.9065	-647.26263	516.82788	1035.4879	-646.19684	282.87851	799.54169	-792.07831	328.16937	798.12274	-838.73016	303.6615	757.15002	-819.31421	292.90781	708.10846	-801.40088	406.29575	495.93442	-725.55304	290.44592	523.68512	-716.46442	265.47983	398.36304	-663.00513	265.33789	359.17175	-693.66687	276.61713	309.23669	-712.53729	273.44836	400.80411	-724.50244	376.88989	108.59616	-717.80756	292.36404	91.258804	-684.8269	348.41638	47.409081	-620.62946	329.13849	51.649715	-896.3739	362.88031	38.058628	-835.72626	251.84006	38.480232	-801.72766	663.87878	849.52161	-789.31555	677.59644	806.85022	-757.53943	676.83228	775.58575	-720.49774	675.57202	759.35767	-780.39508	545.49225	505.33032	-724.23291	665.31915	518.5896	-709.91675	664.82465	260.91626	-722.68671	675.55847	262.96042	-656.21686	675.52734	224.06276	-687.16663	666.23236	172.92433	-707.99731	586.31848	108.71393	-710.32654	667.77875	97.39183	-671.97906	602.04034	50.589928	-616.31689	663.37396	54.239998	-887.72479	619.3952	42.534889	-828.74066	720.98907	44.951637	-779.09332	458.29034	1506.8293	-686.3573	467.78851	1237.7151	-616.29443	289.19193	1483.6927	-731.85162	634.73883	1461.6664	-745.99841	462.27097	1428.3451	-825.68964	581.39722	1380.3959	-620.17981
55	0.265	342.39999	991.84418	-820.77759	589.99115	1006.1393	-827.47748	425.27469	1033.9254	-647.19983	516.88629	1035.5768	-646.26788	282.74808	799.60712	-792.13489	328.18903	798.12933	-838.67712	303.66733	757.112	-819.3551	292.89383	708.0639	-801.34576	406.27319	495.91168	-725.55127	290.60718	523.67847	-716.40662	265.50339	398.35056	-663.04559	265.35455	359.15646	-693.66223	276.52719	309.28592	-712.60236	273.39716	400.80161	-724.52844	376.89206	108.61261	-717.79498	292.35687	91.241081	-684.77722	348.41248	47.41523	-620.62866	329.10944	51.667141	-896.3822	362.91946	38.094196	-835.70856	251.86507	38.487053	-801.74792	663.89026	849.53979	-789.30261	677.60339	806.86566	-757.54468	676.83441	775.56305	-720.51849	675.57159	759.36731	-780.39197	545.53107	505.2691	-724.20831	665.33386	518.59009	-709.95276	664.86316	260.94092	-722.68481	675.57153	262.98071	-656.23193	675.53595	224.09897	-687.16766	666.29108	172.94913	-708.0083	586.3277	108.72775	-710.26831	667.80322	97.414467	-671.9751	602.04865	50.620899	-616.33093	663.31409	54.185658	-887.69269	619.36792	42.468174	-828.67053	720.9682	44.949089	-779.09906	458.28394	1506.835	-686.38062	467.81665	1237.7188	-616.32526	289.19846	1483.6835	-731.86877	634.79163	1461.7217	-745.95148	462.28937	1428.3679	-825.73029	581.34326	1380.4313	-620.19342
56	0.27	342.41684	991.80237	-820.85236	590.01605	1006.1419	-827.58197	425.30383	1033.9258	-647.2688	516.88049	1035.5634	-646.26996	282.79282	799.60352	-792.14685	328.17023	798.14001	-838.74664	303.63419	757.1463	-819.36237	292.82251	708.05963	-801.36121	406.34802	495.9238	-725.50562	290.59433	523.67175	-716.39441	265.47516	398.34659	-663.03516	265.29694	359.19815	-693.70062	276.56543	309.27646	-712.57886	273.37653	400.82932	-724.58447	376.91022	108.6198	-717.79712	292.38223	91.24633	-684.83624	348.37747	47.423729	-620.62164	329.12204	51.672794	-896.39813	362.90964	38.09753	-835.71509	251.87332	38.480499	-801.75024	663.92798	849.53607	-789.34869	677.61993	806.87335	-757.54657	676.83887	775.62549	-720.51025	675.59088	759.39124	-780.4162	545.50281	505.28073	-724.27289	665.36011	518.62207	-709.95154	664.8634	260.94482	-722.68555	675.59894	262.96149	-656.2619	675.53601	224.09729	-687.16772	666.26318	172.94855	-708.03986	586.35797	108.75597	-710.3028	667.8241	97.385429	-671.95935	602.02325	50.625446	-616.34961	663.32214	54.190945	-887.67548	619.41321	42.526608	-828.74762	720.97174	44.951649	-779.11755	458.28818	1506.8314	-686.39893	467.74542	1237.7452	-616.31201	289.16522	1483.7039	-731.93817	634.85712	1461.8068	-745.88361	462.29825	1428.3489	-825.74084	581.40631	1380.3981	-620.27502
57	0.275	342.37778	991.79773	-820.86066	590.02618	1006.1332	-827.60443	425.27429	1033.9231	-647.32025	516.88489	1035.5618	-646.26404	283.39069	799.31195	-792.25275	328.1618	798.12567	-838.7746	303.65146	757.12347	-819.35895	292.83786	708.0271	-801.32086	406.33817	495.95258	-725.53204	290.57339	523.64319	-716.39691	265.51096	398.35379	-663.03479	265.34644	359.18082	-693.6922	276.57465	309.3067	-712.54315	273.3288	400.7963	-724.50507	376.8923	108.61354	-717.79407	292.38065	91.254501	-684.78772	348.36398	47.382019	-620.65277	329.12598	51.664944	-896.38892	362.89316	38.085617	-835.7326	251.81871	38.493668	-801.69702	663.9306	849.56805	-789.34869	677.64069	806.90125	-757.60791	676.86444	775.60925	-720.58124	675.53333	759.3241	-780.43677	545.47003	505.31049	-724.20734	665.36334	518.6048	-710.01721	664.88287	260.96011	-722.69513	675.57739	262.94827	-656.2359	675.53223	224.08261	-687.18079	666.30328	172.97029	-707.99127	586.3277	108.70928	-710.24414	667.82776	97.382118	-672.00256	602.02008	50.596226	-616.34448	663.30304	54.186436	-887.70062	619.42468	42.530102	-828.7511	720.95282	44.955765	-779.08795	458.26099	1506.8284	-686.44879	467.74188	1237.7455	-616.30688	289.16055	1483.6787	-731.95331	634.82806	1461.7861	-745.90631	462.26486	1428.3556	-825.79114	581.32849	1380.3951	-620.22998
